<svg xmlns="http://www.w3.org/2000/svg" width="112" height="19" viewBox="0 0 112 19"><g><g><path fill="#fff" d="M8.122 14.95c.9 0 1.625-.724 1.625-1.624 0-.9-.775-1.625-1.625-1.625H4.823v3.25zm-.924-7.373c.9 0 1.624-.724 1.624-1.624 0-.9-.725-1.625-1.624-1.625H4.823v3.25zM-.101 19V.254h8.273c3 0 5.55 2.575 5.55 5.574 0 1.275-.476 2.45-1.2 3.374 1.274 1.025 2.124 2.6 2.124 4.299 0 2.974-2.525 5.499-5.499 5.499zM26.572.254c5.174 0 9.373 4.224 9.373 9.398 0 5.174-4.2 9.348-9.373 9.348a9.333 9.333 0 0 1-9.348-9.348c0-5.174 4.174-9.398 9.348-9.398zm0 4.899c-2.45 0-4.449 2-4.449 4.474 0 2.45 2 4.474 4.45 4.474 2.474 0 4.473-2.025 4.473-4.474 0-2.474-2-4.474-4.474-4.474zm17.226 6.373c0 1.35 1.1 2.45 2.45 2.45s2.449-1.1 2.449-2.45V.254h4.949v11.348A7.381 7.381 0 0 1 46.247 19a7.35 7.35 0 0 1-7.398-7.398V.254h4.95zM71.171 19l-8.848-8.873V19h-4.924V.254h2l8.873 8.848V.254h4.923V19zM87.796 6.453c-.775-.775-1.874-1.225-3.149-1.225-2.55 0-4.399 1.85-4.399 4.399 0 2.55 1.85 4.399 4.399 4.399 1.275 0 2.374-.45 3.15-1.25l3.498 3.45C89.595 17.924 87.246 19 84.647 19c-5.174 0-9.373-4.2-9.373-9.373 0-5.174 4.2-9.373 9.373-9.373a9.273 9.273 0 0 1 6.598 2.724zm17.076 5.648V19h-4.874V12.1L93.15.254h5.673l3.6 6.249 3.623-6.249h5.674z"/><path fill="#323a45" d="M8.122 14.95c.9 0 1.625-.724 1.625-1.624 0-.9-.775-1.625-1.625-1.625H4.823v3.25zm-.924-7.373c.9 0 1.624-.724 1.624-1.624 0-.9-.725-1.625-1.624-1.625H4.823v3.25zM-.101 19V.254h8.273c3 0 5.55 2.575 5.55 5.574 0 1.275-.476 2.45-1.2 3.374 1.274 1.025 2.124 2.6 2.124 4.299 0 2.974-2.525 5.499-5.499 5.499zM26.572.254c5.174 0 9.373 4.224 9.373 9.398 0 5.174-4.2 9.348-9.373 9.348a9.333 9.333 0 0 1-9.348-9.348c0-5.174 4.174-9.398 9.348-9.398zm0 4.899c-2.45 0-4.449 2-4.449 4.474 0 2.45 2 4.474 4.45 4.474 2.474 0 4.473-2.025 4.473-4.474 0-2.474-2-4.474-4.474-4.474zm17.226 6.373c0 1.35 1.1 2.45 2.45 2.45s2.449-1.1 2.449-2.45V.254h4.949v11.348A7.381 7.381 0 0 1 46.247 19a7.35 7.35 0 0 1-7.398-7.398V.254h4.95zM71.171 19l-8.848-8.873V19h-4.924V.254h2l8.873 8.848V.254h4.923V19zM87.796 6.453c-.775-.775-1.874-1.225-3.149-1.225-2.55 0-4.399 1.85-4.399 4.399 0 2.55 1.85 4.399 4.399 4.399 1.275 0 2.374-.45 3.15-1.25l3.498 3.45C89.595 17.924 87.246 19 84.647 19c-5.174 0-9.373-4.2-9.373-9.373 0-5.174 4.2-9.373 9.373-9.373a9.273 9.273 0 0 1 6.598 2.724zm17.076 5.648V19h-4.874V12.1L93.15.254h5.673l3.6 6.249 3.623-6.249h5.674z"/></g></g></svg>