<svg xmlns="http://www.w3.org/2000/svg" width="112" height="19" viewBox="0 0 112 19"><g><g><path fill="#fff" d="M8.123 14.95c.9 0 1.624-.724 1.624-1.624 0-.9-.775-1.625-1.624-1.625h-3.3v3.25zm-.925-7.373c.9 0 1.624-.724 1.624-1.624 0-.9-.724-1.625-1.624-1.625H4.823v3.25zM-.101 19V.254h8.274c2.999 0 5.548 2.575 5.548 5.574 0 1.274-.475 2.45-1.2 3.374 1.275 1.025 2.125 2.6 2.125 4.3 0 2.973-2.524 5.498-5.499 5.498zM26.572.254c5.174 0 9.373 4.224 9.373 9.398 0 5.174-4.2 9.348-9.373 9.348a9.333 9.333 0 0 1-9.348-9.348c0-5.174 4.174-9.398 9.348-9.398zm0 4.9c-2.45 0-4.449 1.999-4.449 4.473 0 2.45 2 4.474 4.45 4.474a4.485 4.485 0 0 0 4.473-4.474c0-2.474-2-4.474-4.474-4.474zm17.226 6.373c0 1.35 1.1 2.449 2.45 2.449s2.449-1.1 2.449-2.45V.255h4.949v11.347A7.381 7.381 0 0 1 46.247 19 7.35 7.35 0 0 1 38.85 11.6V.254h4.95zM71.171 19l-8.848-8.873V19h-4.924V.254h2l8.872 8.848V.254h4.924V19zM87.796 6.453c-.775-.775-1.874-1.225-3.149-1.225-2.55 0-4.399 1.85-4.399 4.399 0 2.55 1.85 4.4 4.4 4.4 1.274 0 2.373-.45 3.148-1.25l3.5 3.448c-1.7 1.7-4.05 2.775-6.649 2.775-5.174 0-9.373-4.2-9.373-9.373 0-5.174 4.2-9.373 9.373-9.373a9.272 9.272 0 0 1 6.598 2.725zm17.076 5.648V19h-4.874V12.1L93.15.254h5.673l3.6 6.249 3.624-6.249h5.673z"/></g></g></svg>